# xmcd
#
# Track frame offsets:
#	187
#	23600
#	39847
#	53922
#	75362
#	90227
#	106780
#	119662
#	138302
#	152627
#
# Disc length: 2246 seconds
#
# Revision: 1
# Processed by: cddbd v1.5.1PL2 Copyright (c) Steve Scherf et al.
# Submitted via: audiograbber 1.83.01
#
DISCID=6708c40a
DTITLE=JVC - JVC043
DYEAR=1900
DGENRE=Karaoke Country
TTITLE0=Denver, John - Rocky Mountain High
TTITLE1=Denver, John - Sunshine On My Shoulders
TTITLE2=Denver, John - Annie'S Song
TTITLE3=Denver, John - Back Home Again
TTITLE4=Denver, John - Thank God I'M A Country Boy
TTITLE5=Denver, John - I'M Sorry
TTITLE6=Nilsson - Everybody'S Talkin'
TTITLE7=Rogers, Kenny and Parton, Dolly - Islands In The Stream
TTITLE8=Buffett, Jimmy - Come Monday
TTITLE9=Party Songs - Changes In Latitudes, Changes In Attitudes
EXTD=
EXTT0=
EXTT1=
EXTT2=
EXTT3=
EXTT4=
EXTT5=
EXTT6=
EXTT7=
EXTT8=
EXTT9=
PLAYORDER=
